<?xml version="1.0" encoding="utf-8"?>
<!-- Generator: Adobe Illustrator 16.0.0, SVG Export Plug-In . SVG Version: 6.00 Build 0)  -->
<!DOCTYPE svg PUBLIC "-//W3C//DTD SVG 1.1//EN" "http://www.w3.org/Graphics/SVG/1.1/DTD/svg11.dtd">
<svg version="1.1" id="图层_1" xmlns="http://www.w3.org/2000/svg" xmlns:xlink="http://www.w3.org/1999/xlink" x="0px" y="0px"
	 width="189.5px" height="81.958px" viewBox="0 0 189.5 81.958" enable-background="new 0 0 189.5 81.958" xml:space="preserve">
<g>
	<g>
		<g>
			<path fill="#C18E20" d="M22.393,76.598H5.762V7.895h99.107c0.415,0,0.75,0.336,0.75,0.751c0,0.414-0.335,0.75-0.75,0.75H7.263
				v65.7h15.13c0.415,0,0.751,0.336,0.751,0.751C23.144,76.26,22.808,76.598,22.393,76.598z"/>
		</g>
		<g>
			<path fill="#C18E20" d="M182.379,76.598H58.438c-0.415,0-0.75-0.336-0.75-0.75c0-0.415,0.335-0.751,0.75-0.751h122.439v-65.7
				h-61.041c-0.415,0-0.75-0.336-0.75-0.75c0-0.415,0.336-0.751,0.75-0.751h62.542L182.379,76.598L182.379,76.598z"/>
		</g>
		<circle fill="#C18E20" cx="108.575" cy="8.645" r="1.618"/>
		<circle fill="#C18E20" cx="54.528" cy="75.847" r="1.619"/>
	</g>
	<g>
		<g>
			<path fill="#C18E20" d="M26.308,28.794c-0.164,0.102-0.317,0.152-0.459,0.152c-0.266,0-0.449-0.082-0.551-0.245l-6.822-7.924
				c-0.124-0.164-0.184-0.316-0.184-0.459c0-0.204,0.082-0.387,0.244-0.55c0.102-0.102,0.255-0.153,0.459-0.153
				c0.265,0,0.448,0.082,0.551,0.245l6.822,7.924c0.124,0.123,0.185,0.276,0.185,0.459C26.553,28.447,26.471,28.63,26.308,28.794z
				 M28.267,40.176c0,0.203-0.067,0.372-0.199,0.504c-0.133,0.132-0.302,0.199-0.504,0.199c-0.205,0-0.373-0.067-0.506-0.199
				c-0.132-0.133-0.198-0.302-0.198-0.504v-9.792c0-0.245,0.092-0.428,0.275-0.551c1.489-1.122,2.851-2.413,4.085-3.871
				c1.233-1.458,2.212-2.739,2.938-3.84c0.724-1.102,1.167-1.815,1.331-2.142c0.142-0.265,0.356-0.398,0.642-0.398
				c0.102,0,0.214,0.031,0.337,0.092c0.244,0.123,0.367,0.337,0.367,0.643c0,0.123-0.03,0.235-0.092,0.337
				c-1.265,2-1.993,3.151-2.187,3.458c-0.194,0.307-0.908,1.193-2.142,2.662c-1.234,1.469-2.616,2.795-4.145,3.978v9.424H28.267z"/>
			<path fill="#C18E20" d="M27.563,41.028c-0.244,0-0.449-0.081-0.611-0.242c-0.161-0.163-0.242-0.368-0.242-0.609v-9.792
				c0-0.296,0.114-0.523,0.341-0.674c1.466-1.105,2.832-2.4,4.053-3.843c1.224-1.446,2.209-2.733,2.927-3.826
				c0.715-1.087,1.16-1.803,1.322-2.127c0.17-0.315,0.437-0.479,0.775-0.479c0.126,0,0.258,0.035,0.403,0.108
				c0.294,0.146,0.449,0.415,0.449,0.774c0,0.15-0.038,0.29-0.114,0.414l-2.189,3.46c-0.199,0.315-0.904,1.191-2.154,2.678
				c-1.221,1.452-2.604,2.783-4.11,3.955v9.352c0,0.243-0.082,0.448-0.242,0.609C28.011,40.947,27.806,41.028,27.563,41.028z
				 M36.13,19.732c-0.232,0-0.394,0.102-0.512,0.32c-0.167,0.33-0.617,1.056-1.337,2.153c-0.725,1.102-1.717,2.399-2.949,3.854
				c-1.235,1.46-2.618,2.77-4.109,3.893c-0.15,0.101-0.216,0.236-0.216,0.433v9.792c0,0.163,0.05,0.294,0.156,0.4
				c0.209,0.208,0.589,0.209,0.8-0.001c0.104-0.105,0.156-0.236,0.156-0.399V30.68l0.058-0.044c1.513-1.17,2.899-2.501,4.122-3.956
				c1.224-1.456,1.94-2.346,2.131-2.646l2.187-3.458c0.046-0.076,0.069-0.16,0.069-0.257c0-0.25-0.09-0.413-0.284-0.509
				C36.299,19.758,36.208,19.732,36.13,19.732z M25.849,29.095c-0.319,0-0.546-0.104-0.677-0.313l-6.809-7.907
				c-0.147-0.195-0.22-0.379-0.22-0.556c0-0.244,0.097-0.464,0.288-0.655c0.13-0.13,0.32-0.197,0.564-0.197
				c0.317,0,0.544,0.106,0.676,0.314l6.81,7.907c0.144,0.142,0.22,0.332,0.22,0.556c0,0.243-0.097,0.464-0.288,0.655
				C26.2,29.036,26.02,29.095,25.849,29.095z M18.996,19.762c-0.163,0-0.282,0.037-0.355,0.11c-0.135,0.135-0.201,0.281-0.201,0.445
				c0,0.11,0.052,0.234,0.154,0.37l6.816,7.917c0.087,0.136,0.227,0.193,0.439,0.193c0.114,0,0.242-0.044,0.381-0.13
				c0.108-0.115,0.174-0.261,0.174-0.425c0-0.144-0.046-0.26-0.141-0.354l-6.831-7.933C19.347,19.82,19.208,19.762,18.996,19.762z"
				/>
		</g>
		<g>
			<path fill="#C18E20" d="M89.945,40.176c0,0.203-0.067,0.372-0.199,0.504c-0.133,0.132-0.302,0.199-0.504,0.199
				c-0.205,0-0.373-0.067-0.505-0.199c-0.133-0.133-0.198-0.302-0.198-0.504V22.552l-7.07,10.188
				c-0.164,0.205-0.366,0.307-0.612,0.307c-0.244,0-0.438-0.102-0.581-0.307l-6.793-10.127v17.563c0,0.203-0.072,0.372-0.214,0.504
				c-0.142,0.132-0.316,0.199-0.52,0.199s-0.373-0.067-0.505-0.199c-0.133-0.133-0.199-0.302-0.199-0.504V20.288
				c0-0.204,0.071-0.372,0.214-0.505c0.142-0.132,0.315-0.199,0.52-0.199c0.265,0,0.459,0.103,0.582,0.306l7.527,11.168L88.66,19.89
				c0.162-0.204,0.367-0.306,0.611-0.306c0.102,0,0.173,0.011,0.214,0.031c0.306,0.082,0.459,0.306,0.459,0.673L89.945,40.176
				L89.945,40.176z"/>
			<path fill="#C18E20" d="M89.242,41.028c-0.244,0-0.45-0.081-0.61-0.242c-0.16-0.161-0.242-0.366-0.242-0.609V23.025l-6.799,9.8
				c-0.198,0.248-0.443,0.37-0.734,0.37c-0.294,0-0.531-0.125-0.702-0.37L73.631,23.1v17.076c0,0.245-0.087,0.451-0.261,0.613
				c-0.171,0.159-0.379,0.239-0.621,0.239c-0.244,0-0.449-0.081-0.609-0.242c-0.161-0.162-0.243-0.366-0.243-0.609V20.288
				c0-0.246,0.089-0.453,0.262-0.614c0.171-0.158,0.38-0.238,0.621-0.238c0.315,0,0.561,0.13,0.708,0.378l7.402,10.982l7.649-10.991
				c0.197-0.248,0.442-0.37,0.733-0.37c0.126,0,0.215,0.014,0.279,0.045c0.233,0.06,0.543,0.258,0.543,0.807v19.889
				c0,0.243-0.082,0.448-0.242,0.609C89.689,40.947,89.484,41.028,89.242,41.028z M88.686,22.078v18.098
				c0,0.164,0.051,0.295,0.155,0.399c0.209,0.21,0.589,0.21,0.8,0c0.104-0.105,0.155-0.236,0.155-0.399V20.288
				c0-0.302-0.107-0.466-0.349-0.53c-0.028-0.01-0.061-0.025-0.176-0.025c-0.199,0-0.361,0.082-0.496,0.25l-7.89,11.337
				l-7.647-11.347c-0.101-0.167-0.245-0.241-0.459-0.241c-0.166,0-0.304,0.052-0.419,0.159c-0.112,0.104-0.167,0.234-0.167,0.396
				v19.889c0,0.164,0.051,0.294,0.155,0.399c0.211,0.211,0.591,0.209,0.819-0.003c0.112-0.105,0.167-0.235,0.167-0.396v-18.05
				l7.064,10.532c0.113,0.161,0.262,0.24,0.458,0.24c0.2,0,0.361-0.081,0.497-0.25L88.686,22.078z"/>
		</g>
		<g>
			<path fill="#C18E20" d="M62.356,32.496c0,1.572-0.352,2.999-1.056,4.284c-0.704,1.285-1.672,2.29-2.907,3.014
				s-2.606,1.086-4.115,1.086c-1.51,0-2.882-0.363-4.115-1.086c-1.234-0.724-2.204-1.729-2.907-3.014
				c-0.704-1.285-1.056-2.712-1.056-4.284V20.288c0-0.204,0.067-0.372,0.199-0.505c0.133-0.132,0.301-0.199,0.506-0.199
				c0.203,0,0.372,0.067,0.504,0.199c0.133,0.133,0.199,0.302,0.199,0.505v12.208c0,1.306,0.29,2.49,0.872,3.549
				c0.582,1.062,1.376,1.893,2.386,2.494c1.009,0.602,2.147,0.903,3.412,0.903c1.245,0,2.371-0.302,3.381-0.903
				c1.009-0.601,1.805-1.432,2.386-2.494c0.581-1.06,0.872-2.243,0.872-3.549V20.288c0-0.204,0.072-0.372,0.214-0.505
				c0.144-0.132,0.317-0.199,0.521-0.199c0.204,0,0.371,0.067,0.504,0.199c0.132,0.133,0.198,0.302,0.198,0.505v12.208H62.356z"/>
			<path fill="#C18E20" d="M54.279,41.028c-1.528,0-2.938-0.372-4.19-1.106c-1.252-0.734-2.249-1.768-2.962-3.071
				c-0.713-1.302-1.075-2.767-1.075-4.355V20.288c0-0.243,0.082-0.448,0.242-0.609c0.163-0.161,0.368-0.243,0.611-0.243
				c0.243,0,0.447,0.082,0.609,0.242c0.161,0.161,0.242,0.366,0.242,0.61v12.208c0,1.274,0.288,2.445,0.854,3.478
				c0.565,1.034,1.351,1.854,2.332,2.438c0.981,0.585,2.104,0.882,3.336,0.882c1.211,0,2.323-0.296,3.306-0.882
				c0.981-0.584,1.766-1.405,2.332-2.438c0.566-1.033,0.854-2.204,0.854-3.478V20.288c0-0.245,0.088-0.452,0.261-0.613
				c0.345-0.318,0.908-0.317,1.231,0.003c0.161,0.161,0.242,0.366,0.242,0.61v12.208c0,1.588-0.361,3.054-1.074,4.355
				c-0.713,1.303-1.71,2.337-2.962,3.071C57.217,40.656,55.807,41.028,54.279,41.028z M46.905,19.732
				c-0.165,0-0.296,0.051-0.401,0.156c-0.104,0.105-0.155,0.236-0.155,0.4v12.208c0,1.538,0.349,2.955,1.038,4.213
				c0.687,1.255,1.646,2.25,2.852,2.957c1.206,0.707,2.565,1.066,4.041,1.066c1.474,0,2.833-0.359,4.04-1.066
				c1.205-0.707,2.165-1.702,2.852-2.957c0.689-1.257,1.038-2.675,1.038-4.213V20.288c0-0.164-0.051-0.295-0.155-0.4
				c-0.213-0.21-0.589-0.209-0.82,0.004c-0.112,0.104-0.167,0.235-0.167,0.396v12.208c0,1.326-0.299,2.542-0.89,3.621
				c-0.593,1.08-1.414,1.938-2.44,2.55c-1.029,0.613-2.192,0.923-3.458,0.923c-1.287,0-2.46-0.311-3.488-0.923
				c-1.027-0.612-1.848-1.47-2.44-2.55c-0.591-1.079-0.891-2.295-0.891-3.621V20.288c0-0.164-0.05-0.295-0.155-0.4
				C47.2,19.783,47.069,19.732,46.905,19.732z"/>
		</g>
		<g>
			<path fill="#C18E20" d="M116.048,37.789c-0.978,0.979-2.065,1.739-3.259,2.279s-2.443,0.812-3.748,0.812
				c-1.773,0-3.417-0.489-4.925-1.469c-1.511-0.979-2.71-2.284-3.597-3.916c-0.888-1.632-1.33-3.386-1.33-5.263
				c0-1.876,0.441-3.63,1.33-5.262c0.887-1.632,2.086-2.938,3.597-3.917c1.509-0.979,3.151-1.469,4.925-1.469
				c1.245,0,2.402,0.24,3.473,0.72c1.071,0.479,2.096,1.219,3.075,2.218c0.122,0.143,0.185,0.306,0.185,0.49
				c0,0.204-0.071,0.378-0.215,0.52c-0.144,0.143-0.307,0.214-0.49,0.214c-0.164,0-0.336-0.071-0.521-0.214
				c-0.856-0.857-1.733-1.494-2.63-1.912c-0.898-0.418-1.857-0.627-2.877-0.627c-1.51,0-2.911,0.423-4.208,1.27
				c-1.294,0.846-2.319,1.984-3.074,3.412c-0.755,1.428-1.133,2.948-1.133,4.559c0,1.632,0.377,3.152,1.133,4.56
				c0.755,1.407,1.779,2.535,3.074,3.381c1.296,0.846,2.696,1.27,4.208,1.27c1.143,0,2.225-0.224,3.243-0.674
				c1.021-0.449,1.929-1.101,2.723-1.958c0.144-0.143,0.315-0.214,0.521-0.214c0.185,0,0.349,0.061,0.49,0.184
				c0.145,0.143,0.215,0.316,0.215,0.52C116.232,37.507,116.171,37.667,116.048,37.789z"/>
			<path fill="#C18E20" d="M109.042,41.028c-1.796,0-3.479-0.502-5.006-1.493c-1.524-0.988-2.75-2.324-3.646-3.97
				s-1.35-3.44-1.35-5.334c0-1.893,0.454-3.688,1.35-5.333c0.895-1.646,2.121-2.982,3.646-3.97c1.526-0.99,3.21-1.493,5.006-1.493
				c1.259,0,2.449,0.247,3.534,0.732c1.082,0.484,2.131,1.241,3.119,2.25c0.152,0.179,0.228,0.375,0.228,0.594
				c0,0.244-0.087,0.454-0.257,0.625c-0.322,0.321-0.76,0.359-1.207,0.012c-0.854-0.852-1.725-1.485-2.604-1.895
				c-0.875-0.407-1.821-0.613-2.813-0.613c-1.472,0-2.86,0.419-4.125,1.246c-1.269,0.829-2.286,1.958-3.024,3.356
				c-0.74,1.4-1.117,2.911-1.117,4.49c0,1.6,0.375,3.11,1.115,4.489c0.739,1.379,1.758,2.499,3.025,3.327
				c1.266,0.827,2.652,1.246,4.125,1.246c1.118,0,2.188-0.223,3.184-0.661s1.896-1.084,2.674-1.923
				c0.334-0.333,0.857-0.349,1.215-0.042c0.181,0.178,0.268,0.388,0.268,0.632c0,0.244-0.076,0.443-0.229,0.594
				c-0.987,0.988-2.1,1.766-3.303,2.31C111.643,40.751,110.361,41.028,109.042,41.028z M109.042,19.732
				c-1.737,0-3.367,0.486-4.845,1.445c-1.481,0.961-2.676,2.26-3.545,3.863c-0.871,1.602-1.313,3.349-1.313,5.191
				c0,1.844,0.442,3.591,1.313,5.192c0.871,1.603,2.063,2.902,3.545,3.863c1.478,0.958,3.107,1.445,4.845,1.445
				c1.278,0,2.519-0.269,3.687-0.798c1.172-0.53,2.254-1.287,3.215-2.25c0.097-0.094,0.142-0.22,0.142-0.384
				c0-0.165-0.058-0.301-0.17-0.416c-0.228-0.193-0.581-0.188-0.802,0.031c-0.801,0.864-1.732,1.535-2.768,1.989
				c-1.033,0.455-2.145,0.686-3.303,0.686c-1.531,0-2.975-0.436-4.288-1.294c-1.312-0.856-2.36-2.012-3.125-3.435
				c-0.763-1.422-1.149-2.98-1.149-4.629c0-1.628,0.388-3.185,1.149-4.628c0.763-1.443,1.813-2.609,3.125-3.466
				c1.313-0.859,2.757-1.294,4.288-1.294c1.036,0,2.025,0.216,2.939,0.641c0.91,0.424,1.809,1.078,2.672,1.942
				c0.301,0.23,0.582,0.218,0.802,0c0.114-0.115,0.17-0.25,0.17-0.415c0-0.146-0.048-0.276-0.147-0.394
				c-0.955-0.975-1.976-1.709-3.021-2.179C111.407,19.97,110.259,19.732,109.042,19.732z"/>
		</g>
		<g>
			<path fill="#C18E20" d="M140.211,29.345c0,0.204-0.066,0.372-0.199,0.505c-0.133,0.132-0.301,0.199-0.505,0.199h-12.024v10.128
				c0,0.203-0.064,0.372-0.197,0.504c-0.135,0.132-0.291,0.199-0.475,0.199c-0.205,0-0.375-0.067-0.506-0.199
				c-0.133-0.133-0.199-0.302-0.199-0.504V20.288c0-0.204,0.066-0.372,0.199-0.505c0.131-0.132,0.301-0.199,0.506-0.199
				c0.184,0,0.34,0.067,0.475,0.199c0.132,0.133,0.197,0.302,0.197,0.505v8.353h12.024c0.204,0,0.372,0.071,0.505,0.214
				S140.211,29.161,140.211,29.345z M142.75,20.288v19.889c0,0.203-0.07,0.372-0.214,0.504c-0.142,0.132-0.306,0.199-0.49,0.199
				c-0.204,0-0.372-0.067-0.505-0.199c-0.133-0.133-0.199-0.302-0.199-0.504V20.288c0-0.204,0.066-0.372,0.199-0.505
				c0.133-0.132,0.301-0.199,0.505-0.199c0.185,0,0.349,0.067,0.49,0.199C142.68,19.916,142.75,20.084,142.75,20.288z"/>
			<path fill="#C18E20" d="M142.046,41.028c-0.243,0-0.448-0.081-0.61-0.242c-0.16-0.161-0.242-0.366-0.242-0.609V20.288
				c0-0.244,0.082-0.449,0.244-0.61c0.308-0.307,0.842-0.336,1.199-0.004c0.172,0.162,0.262,0.369,0.262,0.614v19.889
				c0,0.245-0.088,0.451-0.262,0.613C142.466,40.948,142.268,41.028,142.046,41.028z M142.046,19.732
				c-0.164,0-0.295,0.051-0.399,0.155c-0.104,0.104-0.154,0.235-0.154,0.4v19.889c0,0.164,0.051,0.295,0.154,0.399
				c0.199,0.198,0.543,0.224,0.789-0.003c0.111-0.105,0.166-0.235,0.166-0.396V20.288c0-0.162-0.055-0.292-0.166-0.396
				C142.32,19.784,142.191,19.732,142.046,19.732z M126.811,41.028c-0.244,0-0.449-0.081-0.61-0.242
				c-0.161-0.163-0.242-0.368-0.242-0.609V20.288c0-0.243,0.081-0.448,0.242-0.609c0.161-0.161,0.366-0.243,0.61-0.243
				c0.223,0,0.416,0.082,0.578,0.242c0.16,0.161,0.242,0.366,0.242,0.61v8.205h11.876c0.246,0,0.452,0.088,0.613,0.262
				c0.157,0.171,0.239,0.369,0.239,0.591c0,0.244-0.082,0.449-0.243,0.61c-0.16,0.161-0.365,0.242-0.609,0.242H127.63v9.979
				c0,0.243-0.082,0.449-0.243,0.609C127.229,40.947,127.033,41.028,126.811,41.028z M126.811,19.732
				c-0.166,0-0.297,0.051-0.401,0.156s-0.154,0.236-0.154,0.4v19.889c0,0.163,0.052,0.294,0.155,0.4
				c0.195,0.195,0.545,0.224,0.77-0.001c0.104-0.104,0.155-0.235,0.155-0.399V29.9h12.173c0.165,0,0.297-0.05,0.398-0.155
				c0.105-0.105,0.156-0.235,0.156-0.4c0-0.146-0.053-0.271-0.16-0.389c-0.104-0.113-0.233-0.167-0.396-0.167h-12.173v-8.501
				c0-0.165-0.052-0.296-0.154-0.4C127.074,19.783,126.953,19.732,126.811,19.732z"/>
		</g>
		<g>
			<path fill="#C18E20" d="M153.814,40.42c-0.062,0.143-0.152,0.255-0.274,0.337c-0.123,0.081-0.256,0.123-0.397,0.123
				c-0.082,0-0.164-0.021-0.244-0.062c-0.145-0.041-0.256-0.127-0.338-0.26c-0.082-0.132-0.121-0.271-0.121-0.413
				c0-0.102,0.011-0.184,0.029-0.245l7.741-19.857c0.144-0.306,0.368-0.459,0.674-0.459c0.142,0,0.275,0.042,0.397,0.123
				c0.123,0.082,0.214,0.194,0.275,0.337l8.23,19.857c0.04,0.122,0.063,0.204,0.063,0.245c0,0.183-0.072,0.352-0.213,0.504
				c-0.146,0.153-0.318,0.23-0.521,0.23c-0.286,0-0.5-0.153-0.643-0.459l-7.56-18.174L153.814,40.42z"/>
			<path fill="#C18E20" d="M169.113,41.028c-0.238,0-0.566-0.094-0.776-0.544l-7.419-17.841l-6.964,17.833
				c-0.075,0.173-0.187,0.308-0.331,0.406c-0.238,0.157-0.521,0.205-0.792,0.07c-0.153-0.042-0.295-0.151-0.397-0.315
				c-0.096-0.155-0.144-0.32-0.144-0.49c0-0.119,0.013-0.214,0.038-0.291l7.744-19.866c0.169-0.365,0.447-0.553,0.812-0.553
				c0.171,0,0.333,0.049,0.479,0.147c0.146,0.098,0.256,0.232,0.33,0.401l8.23,19.86c0.053,0.16,0.072,0.244,0.072,0.302
				c0,0.22-0.085,0.424-0.253,0.605C169.57,40.935,169.359,41.028,169.113,41.028z M160.909,21.85l7.7,18.514
				c0.115,0.25,0.277,0.368,0.504,0.368c0.162,0,0.298-0.06,0.414-0.184c0.115-0.125,0.174-0.258,0.174-0.403
				c0-0.009-0.006-0.05-0.055-0.199L161.42,20.1c-0.049-0.115-0.122-0.204-0.221-0.27c-0.098-0.065-0.201-0.098-0.315-0.098
				c-0.25,0-0.421,0.119-0.538,0.373l-7.738,19.849c-0.008,0.024-0.02,0.084-0.02,0.191c0,0.116,0.033,0.226,0.1,0.335
				c0.063,0.101,0.146,0.165,0.252,0.196c0.086,0.041,0.146,0.056,0.205,0.056c0.112,0,0.217-0.032,0.315-0.098
				c0.099-0.066,0.17-0.155,0.222-0.272L160.909,21.85z"/>
		</g>
	</g>
	<g>
		<g>
			<g>
				<path fill="#C18E20" d="M24.126,57.526c-0.004-0.535,0.051-0.691-0.108-0.691h-2.634c-0.12,0-0.221-0.043-0.308-0.129
					c-0.086-0.086-0.129-0.188-0.129-0.309V53.09c0-0.131,0.043-0.241,0.129-0.327c0.087-0.083,0.188-0.13,0.308-0.13
					c0.119,0,0.222,0.047,0.306,0.13c0.086,0.086,0.129,0.196,0.129,0.327v2.873h2.307v-5.467h-3.229
					c-0.118,0-0.22-0.041-0.306-0.119c-0.085-0.082-0.128-0.186-0.128-0.317c0-0.12,0.043-0.222,0.128-0.308
					c0.086-0.086,0.188-0.127,0.306-0.127h5.19c0.12,0,0.222,0.041,0.308,0.127s0.129,0.188,0.129,0.308
					c0,0.133-0.043,0.235-0.129,0.317c-0.085,0.078-0.188,0.119-0.308,0.119h-1.088v5.467h1.088c0.12,0,0.222,0.043,0.308,0.129
					s0.129,0.189,0.129,0.306c0,0.119-0.043,0.222-0.129,0.308c-0.085,0.086-0.188,0.129-0.308,0.129h-1.088v6.601
					c0,0.116-0.046,0.22-0.129,0.308c-0.086,0.082-0.188,0.129-0.307,0.129c-0.12,0-0.222-0.047-0.308-0.129
					c-0.085-0.088-0.129-0.189-0.129-0.308V57.526z"/>
				<path fill="#C18E20" d="M27.356,64.48c-0.133,0-0.243-0.046-0.327-0.14c-0.087-0.09-0.13-0.195-0.13-0.316l0.021-13.055
					c0-0.157,0.059-0.276,0.179-0.354c0.41-0.293,0.761-0.604,1.06-0.933c0.295-0.332,0.536-0.634,0.722-0.901
					c0.184-0.271,0.371-0.593,0.555-0.963c0.04-0.119,0.118-0.199,0.236-0.246c0.121-0.047,0.232-0.049,0.338-0.011
					c0.12,0.056,0.204,0.14,0.258,0.257c0.052,0.119,0.052,0.23,0,0.338c0,0.024-0.048,0.137-0.139,0.325
					c-0.093,0.19-0.239,0.438-0.437,0.731c-0.198,0.3-0.448,0.621-0.751,0.973c-0.305,0.35-0.676,0.688-1.109,1.02l-0.02,12.817
					c0,0.122-0.047,0.228-0.14,0.315C27.581,64.435,27.476,64.48,27.356,64.48z"/>
				<path fill="#C18E20" d="M30.51,52.006h0.911h2.185c0.119,0,0.22,0.045,0.306,0.139c0.086,0.09,0.129,0.195,0.129,0.314
					c0,0.123-0.043,0.227-0.129,0.318s-0.187,0.141-0.306,0.141l-2.185-0.022l-0.02,2.519h2.205c0.131,0,0.24,0.041,0.325,0.127
					c0.089,0.084,0.129,0.194,0.129,0.328c0,0.121-0.04,0.219-0.129,0.307c-0.085,0.087-0.194,0.129-0.325,0.129h-2.205v2.52h2.184
					c0.119,0,0.222,0.043,0.308,0.137c0.086,0.092,0.129,0.197,0.129,0.315c0,0.132-0.043,0.241-0.129,0.327
					c-0.085,0.088-0.188,0.128-0.308,0.128l-2.184-0.021l-0.02,2.854l2.185,0.02c0.133,0,0.241,0.047,0.327,0.129
					c0.086,0.088,0.129,0.189,0.129,0.309s-0.043,0.223-0.129,0.309c-0.085,0.084-0.194,0.125-0.327,0.125l-5.552-0.017
					c-0.12,0-0.224-0.044-0.307-0.128c-0.087-0.088-0.128-0.191-0.128-0.309c0-0.119,0.042-0.223,0.128-0.309
					c0.083-0.085,0.188-0.129,0.307-0.129h2.456l0.02-2.854h-2.457c-0.133,0-0.244-0.041-0.327-0.127
					c-0.087-0.088-0.128-0.195-0.128-0.328c0-0.118,0.042-0.221,0.128-0.307c0.083-0.086,0.193-0.127,0.327-0.127h2.457v-2.519
					l-2.438-0.021c-0.119,0-0.221-0.041-0.308-0.127c-0.084-0.089-0.128-0.189-0.128-0.309c0-0.133,0.043-0.241,0.128-0.327
					c0.086-0.086,0.189-0.128,0.308-0.128l2.438,0.021l0.02-2.519h-2.457c-0.131,0-0.241-0.043-0.327-0.129
					c-0.085-0.085-0.128-0.19-0.128-0.324c0-0.12,0.042-0.222,0.128-0.312c0.086-0.084,0.196-0.127,0.327-0.127h2.457V52.006z"/>
				<path fill="#C18E20" d="M20.801,63.243c-0.095-0.072-0.153-0.166-0.174-0.277c-0.019-0.111,0.006-0.217,0.078-0.313
					c0.517-0.711,0.905-1.406,1.161-2.093c0.256-0.685,0.438-1.292,0.543-1.828c0.106-0.537,0.16-0.963,0.16-1.291
					c0-0.321-0.002-0.487-0.005-0.501c-0.006-0.107,0.026-0.209,0.101-0.301c0.072-0.092,0.171-0.143,0.292-0.15
					c0.109-0.007,0.21,0.026,0.3,0.104c0.089,0.072,0.137,0.164,0.145,0.273c-0.001,0.038-0.002,0.238-0.004,0.6
					c-0.001,0.361-0.055,0.836-0.167,1.42c-0.112,0.586-0.308,1.252-0.592,1.994c-0.282,0.744-0.706,1.5-1.266,2.271
					c-0.044,0.063-0.117,0.112-0.221,0.142C21.015,63.331,20.896,63.311,20.801,63.243z"/>
			</g>
			<path fill="#C18E20" d="M31.396,52.651c-0.004,0.12-0.045,0.217-0.13,0.301c-0.085,0.08-0.187,0.118-0.305,0.116
				c-0.13-0.005-0.233-0.045-0.308-0.129c-0.075-0.086-0.112-0.187-0.109-0.306l0.035-1.967c0.002-0.131,0.043-0.238,0.121-0.316
				c0.079-0.081,0.184-0.122,0.315-0.12c0.117,0.003,0.217,0.046,0.299,0.129c0.08,0.086,0.12,0.192,0.118,0.322L31.396,52.651z"/>
		</g>
		<g>
			<path fill="#C18E20" d="M40.858,50.588c0.123,0.049,0.211,0.131,0.263,0.25c0.053,0.119,0.055,0.242,0.007,0.365
				c-0.052,0.133-0.137,0.228-0.254,0.273c-0.117,0.045-0.237,0.043-0.361-0.004l-2.05-0.794c-0.135-0.054-0.231-0.138-0.285-0.249
				c-0.055-0.114-0.057-0.239-0.004-0.375c0.048-0.122,0.131-0.211,0.251-0.264c0.118-0.053,0.247-0.053,0.384,0L40.858,50.588z"/>
			<path fill="#C18E20" d="M38.46,54.063c-0.135-0.053-0.229-0.139-0.282-0.26c-0.052-0.117-0.055-0.241-0.007-0.362
				c0.048-0.122,0.132-0.213,0.25-0.267c0.12-0.051,0.249-0.051,0.382,0l2.05,0.795c0.124,0.051,0.212,0.131,0.265,0.253
				c0.053,0.12,0.056,0.241,0.007,0.366c-0.047,0.119-0.131,0.209-0.25,0.263c-0.12,0.052-0.241,0.058-0.364,0.006L38.46,54.063z"/>
			<path fill="#C18E20" d="M41.899,61.206c-0.097-0.086-0.15-0.195-0.16-0.324c-0.012-0.125,0.028-0.235,0.116-0.332
				c0.644-0.725,1.141-1.452,1.496-2.176c0.354-0.726,0.619-1.375,0.792-1.951c0.173-0.58,0.278-1.045,0.312-1.4
				c0.033-0.354,0.05-0.54,0.048-0.555c0.002-0.123,0.049-0.227,0.141-0.316c0.091-0.09,0.203-0.135,0.337-0.135
				c0.123,0.004,0.228,0.052,0.319,0.145c0.091,0.09,0.135,0.193,0.131,0.315c-0.006,0.041-0.03,0.262-0.068,0.657
				c-0.038,0.396-0.15,0.912-0.333,1.546c-0.183,0.632-0.472,1.341-0.861,2.126c-0.39,0.785-0.933,1.57-1.631,2.361
				c-0.057,0.064-0.141,0.108-0.26,0.129C42.124,61.323,41.997,61.293,41.899,61.206z"/>
			<path fill="#C18E20" d="M41.862,52.532c-0.132,0-0.241-0.043-0.326-0.13c-0.089-0.085-0.129-0.194-0.129-0.327
				c0-0.131,0.041-0.24,0.129-0.324c0.085-0.086,0.193-0.131,0.326-0.131h4.439v-3.349c0-0.132,0.042-0.239,0.127-0.327
				c0.086-0.084,0.196-0.129,0.327-0.129c0.133,0,0.241,0.045,0.327,0.129c0.086,0.088,0.129,0.195,0.129,0.327v3.349h4.436
				c0.133,0,0.244,0.045,0.329,0.131c0.083,0.084,0.127,0.193,0.127,0.324s-0.043,0.241-0.127,0.327
				c-0.085,0.087-0.196,0.13-0.329,0.13h-4.14c0.107,0.331,0.284,0.795,0.537,1.398c0.25,0.599,0.578,1.244,0.98,1.93
				c0.401,0.688,0.886,1.363,1.446,2.031c0.561,0.667,1.21,1.23,1.952,1.693c0.103,0.064,0.169,0.16,0.196,0.285
				c0.026,0.127,0.007,0.24-0.059,0.35c-0.08,0.131-0.211,0.197-0.397,0.197c-0.076,0-0.157-0.021-0.236-0.061
				c-0.609-0.384-1.157-0.824-1.646-1.329c-0.487-0.501-0.926-1.022-1.315-1.571c-0.392-0.549-0.73-1.097-1.022-1.646
				c-0.289-0.548-0.534-1.054-0.732-1.517v9.451c0,0.131-0.043,0.24-0.129,0.324c-0.085,0.086-0.193,0.129-0.327,0.129
				c-0.131,0-0.241-0.043-0.327-0.129c-0.085-0.084-0.127-0.193-0.127-0.324V52.532H41.862z"/>
			<path fill="#C18E20" d="M38.661,62.808c-0.079-0.091-0.12-0.175-0.124-0.263c-0.059-1.051-0.034-1.666,0.147-2.525
				c0.18-0.855,0.358-1.248,0.606-1.861c0.247-0.607,0.48-1.082,0.695-1.42c0.214-0.336,0.333-0.521,0.353-0.559
				c0.073-0.098,0.173-0.152,0.3-0.167c0.126-0.017,0.238,0.012,0.339,0.084c0.105,0.083,0.167,0.188,0.182,0.317
				c0.014,0.127-0.014,0.237-0.087,0.336c-0.009,0.006-0.111,0.162-0.307,0.463c-0.193,0.3-0.399,0.73-0.62,1.291
				c-0.222,0.561-0.382,0.896-0.554,1.686c-0.17,0.789-0.192,1.327-0.136,2.295c0.007,0.133-0.029,0.244-0.115,0.334
				c-0.085,0.094-0.196,0.145-0.327,0.155C38.883,62.982,38.764,62.926,38.661,62.808z"/>
		</g>
		<g>
			<path fill="#C18E20" d="M59.864,51.467c0.034,0.119,0.028,0.232-0.016,0.343c-0.045,0.11-0.129,0.181-0.249,0.217
				c-0.165,0.063-0.317,0.034-0.454-0.091c-0.05-0.042-0.09-0.107-0.122-0.189c-0.133-0.404-0.222-0.783-0.267-1.137
				s-0.066-0.666-0.066-0.945c0-0.272,0.012-0.496,0.038-0.658c0.021-0.164,0.038-0.254,0.047-0.264
				c0.021-0.123,0.084-0.217,0.188-0.283c0.105-0.063,0.22-0.086,0.342-0.063s0.211,0.083,0.274,0.183s0.081,0.211,0.059,0.334
				c-0.04,0.282-0.062,0.541-0.059,0.773c0.002,0.232,0.019,0.504,0.055,0.813C59.669,50.803,59.746,51.125,59.864,51.467z"/>
			<path fill="#C18E20" d="M69.739,56.566c0.105,0.039,0.184,0.115,0.239,0.228c0.051,0.113,0.06,0.229,0.02,0.348
				c-0.067,0.188-0.206,0.277-0.417,0.277c-0.08,0-0.133-0.006-0.158-0.019c-0.927-0.344-1.778-0.745-2.556-1.198
				c-0.78-0.455-1.47-0.914-2.071-1.367c-0.6-0.455-1.117-0.887-1.545-1.297c-0.429-0.41-0.764-0.74-1.001-0.994
				c-0.185,0.24-0.449,0.549-0.793,0.935c-0.344,0.385-0.775,0.802-1.295,1.258c-0.521,0.456-1.146,0.927-1.874,1.416
				c-0.725,0.489-1.559,0.957-2.496,1.408c-0.064,0.038-0.131,0.06-0.196,0.06c-0.186,0-0.319-0.084-0.399-0.259
				c-0.052-0.104-0.059-0.219-0.019-0.336c0.041-0.118,0.12-0.206,0.237-0.257c1.15-0.559,2.126-1.137,2.931-1.745
				c0.809-0.606,1.468-1.165,1.983-1.672c0.515-0.511,1.017-1.095,1.506-1.756v-0.037c0.014,0,0.019-0.007,0.019-0.011
				c0-0.008,0.007-0.012,0.022-0.012c0-0.027,0.012-0.039,0.038-0.039l0.021-0.02l0.038-0.04c0.015,0,0.019-0.003,0.019-0.011
				c0-0.006,0.007-0.01,0.021-0.01c0.013,0,0.026-0.006,0.042-0.021h0.038c0.014-0.012,0.026-0.02,0.038-0.02h0.182
				c0,0.016,0.012,0.02,0.039,0.02c0.012,0,0.026,0.007,0.038,0.021l0.041,0.021h0.021l0.017,0.019l0.043,0.021
				c0,0.012,0.002,0.02,0.007,0.02c0.007,0,0.013,0.008,0.013,0.021c0.012,0,0.019,0.007,0.019,0.021
				c0.014,0.014,0.188,0.205,0.525,0.573c0.336,0.371,0.819,0.815,1.449,1.337c0.623,0.52,1.379,1.071,2.255,1.645
				C67.654,55.665,68.643,56.159,69.739,56.566z"/>
			<path fill="#C18E20" d="M63.477,50.028h4.955c0.12,0,0.222,0.045,0.307,0.131c0.086,0.086,0.128,0.188,0.128,0.307
				c0,0.119-0.042,0.222-0.128,0.308c-0.085,0.087-0.188,0.129-0.307,0.129H56.167c-0.119,0-0.219-0.042-0.305-0.129
				c-0.086-0.086-0.131-0.188-0.131-0.308c0-0.118,0.045-0.221,0.131-0.307s0.186-0.131,0.305-0.131h4.974"/>
			<line fill="none" x1="62.291" y1="50.028" x2="62.329" y2="50.028"/>
			<path fill="#C18E20" d="M62.28,54.687c0.117,0,0.224,0.043,0.317,0.129c0.091,0.085,0.136,0.196,0.136,0.327v1.963h2.697
				c0.117,0,0.222,0.045,0.315,0.131c0.093,0.086,0.138,0.193,0.138,0.327c0,0.117-0.045,0.22-0.138,0.308
				c-0.093,0.086-0.198,0.127-0.315,0.127h-2.697v6.028c0,0.132-0.045,0.24-0.136,0.329c-0.093,0.083-0.2,0.129-0.317,0.129
				c-0.133,0-0.244-0.045-0.327-0.129c-0.085-0.089-0.131-0.197-0.131-0.329v-6.028H59.29c-0.12,0-0.224-0.041-0.308-0.127
				c-0.086-0.088-0.129-0.189-0.129-0.308c0-0.133,0.043-0.239,0.129-0.327c0.083-0.086,0.188-0.131,0.308-0.131h2.532v-1.963
				c0-0.131,0.046-0.242,0.131-0.327C62.036,54.729,62.146,54.687,62.28,54.687z"/>
			<path fill="#C18E20" d="M65.289,52.056c-0.122-0.026-0.212-0.095-0.27-0.205c-0.058-0.112-0.07-0.233-0.034-0.363
				c0.091-0.282,0.143-0.575,0.165-0.878c0.019-0.306,0.019-0.58,0.002-0.828c-0.02-0.246-0.057-0.529-0.117-0.845
				c-0.029-0.122-0.007-0.233,0.067-0.337c0.071-0.104,0.169-0.172,0.293-0.201c0.119-0.031,0.229-0.009,0.33,0.057
				c0.095,0.07,0.16,0.166,0.19,0.285c0,0.02,0.017,0.122,0.045,0.309c0.031,0.188,0.058,0.423,0.074,0.709
				c0.017,0.281,0.014,0.604-0.01,0.957c-0.021,0.357-0.088,0.705-0.193,1.041c-0.02,0.076-0.053,0.137-0.098,0.185
				C65.616,52.062,65.468,52.102,65.289,52.056z"/>
			<path fill="#C18E20" d="M67.659,62.256c0.088,0.084,0.145,0.184,0.162,0.303c0.021,0.115-0.015,0.22-0.098,0.313
				c-0.107,0.142-0.254,0.196-0.435,0.16c-0.064-0.012-0.131-0.043-0.203-0.098c-0.324-0.273-0.599-0.553-0.823-0.828
				c-0.224-0.277-0.408-0.531-0.551-0.768c-0.146-0.237-0.249-0.432-0.315-0.584c-0.063-0.151-0.096-0.237-0.093-0.25
				c-0.045-0.116-0.041-0.229,0.015-0.338c0.052-0.112,0.138-0.188,0.252-0.235c0.117-0.043,0.229-0.042,0.331,0.012
				c0.103,0.054,0.18,0.138,0.225,0.255c0.115,0.262,0.231,0.492,0.356,0.69c0.124,0.198,0.279,0.42,0.47,0.663
				C67.141,61.793,67.375,62.03,67.659,62.256z"/>
			<path fill="#C18E20" d="M56.903,62.256c-0.093,0.084-0.148,0.184-0.165,0.303c-0.019,0.115,0.015,0.22,0.099,0.313
				c0.109,0.142,0.252,0.196,0.434,0.16c0.064-0.012,0.131-0.043,0.203-0.098c0.325-0.273,0.599-0.553,0.821-0.828
				c0.224-0.277,0.411-0.531,0.554-0.768c0.144-0.237,0.249-0.432,0.313-0.584c0.066-0.151,0.101-0.237,0.097-0.25
				c0.046-0.116,0.042-0.229-0.014-0.338c-0.055-0.112-0.141-0.188-0.255-0.235c-0.118-0.043-0.228-0.042-0.332,0.012
				c-0.103,0.054-0.177,0.138-0.225,0.255c-0.112,0.262-0.229,0.492-0.355,0.69c-0.122,0.198-0.279,0.42-0.47,0.663
				C57.418,61.793,57.184,62.03,56.903,62.256z"/>
		</g>
	</g>
	<g>
		<path fill="#C18E20" d="M125.741,59.385h-1.203v3.691h-0.542v-3.691h-1.198v-0.479h2.943V59.385z"/>
		<path fill="#C18E20" d="M128.68,61.723h-2.084c0.008,0.316,0.096,0.563,0.26,0.736c0.166,0.174,0.396,0.26,0.693,0.26
			c0.333,0,0.641-0.107,0.917-0.32v0.471c-0.261,0.187-0.608,0.277-1.042,0.277c-0.431,0-0.768-0.137-1.009-0.409
			c-0.242-0.272-0.362-0.651-0.362-1.137c0-0.456,0.133-0.832,0.397-1.128c0.265-0.297,0.594-0.444,0.987-0.444
			c0.39,0,0.692,0.125,0.912,0.375c0.219,0.25,0.33,0.601,0.33,1.052V61.723L128.68,61.723z M128.15,61.299
			c0-0.268-0.064-0.477-0.19-0.625c-0.126-0.146-0.302-0.221-0.53-0.221c-0.211,0-0.393,0.08-0.546,0.233
			c-0.153,0.155-0.25,0.358-0.29,0.61h1.557V61.299z"/>
		<path fill="#C18E20" d="M130.003,60.306c0.296-0.185,0.638-0.277,1.026-0.277c0.718,0,1.076,0.378,1.076,1.132v1.916h-0.521
			v-0.459h-0.014c-0.207,0.354-0.51,0.53-0.912,0.53c-0.29,0-0.52-0.079-0.69-0.235c-0.17-0.156-0.255-0.367-0.255-0.631
			c0-0.558,0.33-0.881,0.988-0.973l0.883-0.124c0-0.487-0.201-0.729-0.604-0.729c-0.357,0-0.684,0.121-0.979,0.36L130.003,60.306
			L130.003,60.306z M130.887,61.676c-0.244,0.033-0.412,0.094-0.505,0.184c-0.092,0.09-0.138,0.215-0.138,0.376
			c0,0.142,0.05,0.259,0.15,0.349c0.1,0.09,0.232,0.135,0.396,0.135c0.229,0,0.42-0.08,0.568-0.242
			c0.148-0.161,0.224-0.364,0.224-0.607v-0.285L130.887,61.676z"/>
		<path fill="#C18E20" d="M139.061,63.077h-0.596l-0.425-1.142h-1.737l-0.4,1.142h-0.596l1.59-4.17h0.576L139.061,63.077z
			 M137.873,61.463l-0.63-1.733c-0.021-0.056-0.042-0.151-0.065-0.29h-0.013c-0.021,0.125-0.043,0.223-0.067,0.29l-0.625,1.733
			H137.873z"/>
		<path fill="#C18E20" d="M142.666,63.077h-0.525v-1.693c0-0.611-0.224-0.918-0.67-0.918c-0.232,0-0.423,0.086-0.572,0.259
			c-0.146,0.173-0.223,0.39-0.223,0.653v1.699h-0.527v-2.979h0.527v0.492h0.012c0.225-0.375,0.549-0.563,0.978-0.563
			c0.327,0,0.576,0.104,0.746,0.313s0.256,0.515,0.256,0.914L142.666,63.077L142.666,63.077z"/>
		<path fill="#C18E20" d="M146.682,63.077h-0.527v-0.496h-0.012c-0.217,0.377-0.554,0.566-1.012,0.566
			c-0.376,0-0.676-0.135-0.898-0.402c-0.223-0.269-0.334-0.631-0.334-1.088c0-0.492,0.125-0.886,0.377-1.183
			c0.252-0.298,0.58-0.446,0.986-0.446c0.405,0,0.7,0.159,0.883,0.475h0.01v-1.834h0.529v4.408H146.682z M146.156,61.305
			c0-0.238-0.078-0.438-0.235-0.6c-0.157-0.16-0.351-0.24-0.58-0.24c-0.28,0-0.502,0.104-0.663,0.313
			c-0.16,0.208-0.242,0.494-0.242,0.854c0,0.332,0.078,0.596,0.232,0.787c0.156,0.192,0.361,0.289,0.621,0.289
			c0.255,0,0.463-0.094,0.625-0.283c0.163-0.188,0.242-0.426,0.242-0.707V61.305L146.156,61.305z"/>
		<path fill="#C18E20" d="M150.428,63.077v-4.17h1.225c0.365,0,0.658,0.086,0.877,0.262c0.22,0.174,0.33,0.406,0.33,0.695
			c0,0.229-0.064,0.434-0.195,0.608c-0.13,0.176-0.311,0.301-0.538,0.375v0.01c0.284,0.033,0.513,0.14,0.681,0.322
			c0.17,0.183,0.254,0.413,0.254,0.694c0,0.357-0.129,0.647-0.387,0.871c-0.257,0.221-0.587,0.332-0.988,0.332H150.428
			L150.428,63.077z M150.965,59.377v1.307h0.491c0.26,0,0.464-0.064,0.612-0.189c0.146-0.127,0.222-0.303,0.222-0.527
			c0-0.393-0.263-0.59-0.786-0.59H150.965L150.965,59.377z M150.965,61.152v1.454h0.646c0.281,0,0.5-0.064,0.654-0.195
			c0.151-0.131,0.229-0.312,0.229-0.543c0-0.477-0.324-0.716-0.973-0.716H150.965z"/>
		<path fill="#C18E20" d="M154.441,60.306c0.295-0.185,0.638-0.277,1.023-0.277c0.719,0,1.077,0.378,1.077,1.132v1.916h-0.521
			v-0.459h-0.015c-0.207,0.354-0.511,0.53-0.914,0.53c-0.286,0-0.519-0.079-0.688-0.235c-0.172-0.156-0.256-0.367-0.256-0.631
			c0-0.558,0.328-0.881,0.988-0.973l0.883-0.124c0-0.487-0.201-0.729-0.604-0.729c-0.357,0-0.684,0.121-0.977,0.36v-0.51H154.441z
			 M155.324,61.676c-0.245,0.033-0.413,0.094-0.506,0.184c-0.092,0.09-0.139,0.215-0.139,0.376c0,0.142,0.051,0.259,0.149,0.349
			c0.103,0.09,0.233,0.135,0.397,0.135c0.229,0,0.42-0.08,0.568-0.242c0.148-0.161,0.225-0.364,0.225-0.607v-0.285L155.324,61.676z"
			/>
		<path fill="#C18E20" d="M160.502,63.077h-0.719l-1.273-1.436h-0.011v1.436h-0.528v-4.408h0.528v2.795h0.011l1.209-1.363h0.68
			l-1.348,1.434L160.502,63.077z"/>
		<path fill="#C18E20" d="M163.832,61.723h-2.083c0.009,0.316,0.097,0.563,0.261,0.736c0.166,0.174,0.396,0.26,0.692,0.26
			c0.334,0,0.64-0.107,0.918-0.32v0.471c-0.263,0.187-0.608,0.277-1.042,0.277c-0.432,0-0.768-0.137-1.01-0.409
			c-0.241-0.272-0.361-0.651-0.361-1.137c0-0.456,0.132-0.832,0.396-1.128c0.266-0.297,0.594-0.444,0.986-0.444
			c0.391,0,0.693,0.125,0.913,0.375s0.328,0.601,0.328,1.052L163.832,61.723L163.832,61.723z M163.305,61.299
			c-0.002-0.268-0.066-0.477-0.191-0.625c-0.125-0.146-0.303-0.221-0.529-0.221c-0.211,0-0.395,0.08-0.546,0.233
			c-0.153,0.155-0.25,0.358-0.289,0.61h1.556V61.299z"/>
		<path fill="#C18E20" d="M166.684,60.622c-0.088-0.063-0.209-0.095-0.363-0.095c-0.204,0-0.373,0.095-0.508,0.287
			c-0.131,0.19-0.196,0.442-0.196,0.755v1.508h-0.528v-2.978h0.528v0.604h0.01c0.149-0.438,0.411-0.656,0.78-0.656
			c0.119,0,0.213,0.013,0.277,0.039V60.622L166.684,60.622z"/>
		<path fill="#C18E20" d="M170.406,60.099l-1.352,3.427c-0.25,0.637-0.605,0.953-1.063,0.953c-0.132,0-0.243-0.014-0.339-0.043
			v-0.463c0.104,0.039,0.201,0.059,0.298,0.059c0.237,0,0.417-0.14,0.534-0.42l0.229-0.541l-1.168-2.972h0.584l0.778,2.237
			l0.064,0.244h0.014c0.011-0.056,0.031-0.136,0.063-0.238l0.813-2.243H170.406z"/>
	</g>
</g>
</svg>
